<svg width="108" height="108" viewBox="0 0 108 108" fill="none" xmlns="http://www.w3.org/2000/svg">
<path d="M5.12105 38.929C-1.70698 32.1009 -1.70697 21.0305 5.12105 14.2025L14.2025 5.12106C21.0305 -1.70697 32.1009 -1.70697 38.929 5.12105L102.879 69.0711C109.707 75.8991 109.707 86.9695 102.879 93.7975L93.7975 102.879C86.9695 109.707 75.8991 109.707 69.0711 102.879L5.12105 38.929Z" fill="#0D5872"/>
<path d="M38.9289 102.879C32.1009 109.707 21.0305 109.707 14.2025 102.879L5.12102 93.7975C-1.707 86.9695 -1.70701 75.8991 5.12102 69.071L69.071 5.12102C75.8991 -1.70701 86.9695 -1.707 93.7975 5.12102L102.879 14.2025C109.707 21.0305 109.707 32.1009 102.879 38.9289L38.9289 102.879Z" fill="#0D5872"/>
</svg>
